<svg width="37" height="37" viewBox="0 0 37 37" fill="none" xmlns="http://www.w3.org/2000/svg">
<circle cx="18.5" cy="18.5" r="18" fill="#EBEBEE"/>
<path d="M11.6885 23.5509C11.3193 23.9201 11.3018 24.5792 11.6973 24.966C12.084 25.3527 12.7432 25.3439 13.1123 24.9747L18.4912 19.587L23.8789 24.9747C24.2568 25.3527 24.9072 25.3527 25.294 24.966C25.6719 24.5704 25.6807 23.9288 25.294 23.5509L19.915 18.1632L25.294 12.7843C25.6807 12.4064 25.6807 11.756 25.294 11.3693C24.8984 10.9913 24.2568 10.9826 23.8789 11.3605L18.4912 16.7482L13.1123 11.3605C12.7432 10.9913 12.0752 10.9738 11.6973 11.3693C11.3106 11.756 11.3193 12.4152 11.6885 12.7843L17.0762 18.1632L11.6885 23.5509Z" fill="#424245"/>
</svg>
