<svg width="28" height="28" viewBox="0 0 28 28" fill="none" xmlns="http://www.w3.org/2000/svg">
<path d="M10.0601 4C7.82213 4 6 5.85129 6 8.13455C6 9.06019 6.31755 9.97812 6.83924 10.6724C6.98289 10.8729 7.17191 10.9578 7.36093 10.9578C7.81457 10.9578 8.16993 10.4332 7.82213 9.97041C7.43654 9.46902 7.19459 8.82107 7.19459 8.13455C7.19459 6.52238 8.47991 5.22648 10.0601 5.22648C11.5798 5.22648 12.8198 6.43753 12.8954 7.98027C12.8954 8.02656 12.9029 8.07284 12.9029 8.14226C12.9332 8.50481 13.1676 8.70536 13.47 8.70536C13.8027 8.70536 14.0673 8.48166 14.0824 8.14998C14.09 8.08055 14.09 7.98799 14.0824 7.88C13.9614 5.70473 12.1922 4 10.0601 4ZM17.2881 21.5873C20.4788 20.3993 21.7868 17.5144 20.5241 13.9738L19.9042 12.2305C19.2842 10.5104 18.0971 9.77757 16.706 10.2635C16.3279 9.793 15.7382 9.63101 15.1182 9.86242C14.9141 9.93956 14.7326 10.0398 14.5739 10.171C14.1505 9.66186 13.538 9.47673 12.9029 9.71586C12.7744 9.76214 12.6383 9.83928 12.5173 9.93184L11.7386 7.76429C11.3832 6.76151 10.4986 6.33725 9.57622 6.67666C8.63113 7.02377 8.21529 7.94171 8.57064 8.94449L10.612 14.6681C10.6272 14.7066 10.6196 14.7375 10.5818 14.7529C10.5591 14.7606 10.5364 14.7529 10.5137 14.7298L9.78036 13.9198C9.32671 13.4801 8.7899 13.349 8.26821 13.5419C7.48946 13.835 7.02826 14.5909 7.33825 15.4549C7.42141 15.7094 7.58775 15.9948 7.76921 16.2262L10.3399 19.3811C12.3132 21.811 14.6797 22.5592 17.2881 21.5873ZM16.8799 20.3222C14.8687 21.0704 13.0315 20.6462 11.3001 18.5558L8.70674 15.4471C8.63869 15.3623 8.59333 15.2852 8.54796 15.1772C8.47235 14.9535 8.56308 14.7066 8.82015 14.6141C9.02429 14.5369 9.19818 14.6141 9.36452 14.7992L11.1715 16.6428C11.474 16.9513 11.7613 16.9899 12.0335 16.8896C12.3661 16.7662 12.5249 16.4036 12.3888 16.0102L9.68963 8.4431C9.59134 8.1654 9.70475 7.91085 9.96938 7.81057C10.2264 7.71801 10.4684 7.84143 10.5667 8.11141L12.4644 13.4339C12.5703 13.727 12.8954 13.8658 13.1827 13.7578C13.4624 13.6498 13.6136 13.3336 13.5154 13.0405L12.8424 11.1583C12.9332 11.0658 13.0693 10.9809 13.1902 10.9346C13.5002 10.8189 13.7649 10.9578 13.8858 11.2895L14.4982 13.0019C14.6041 13.3104 14.9216 13.4339 15.209 13.3259C15.4811 13.2256 15.6399 12.9248 15.5341 12.6162L15.0653 11.3049C15.156 11.2123 15.2921 11.1275 15.4131 11.0812C15.7231 10.9655 15.9877 11.1043 16.1087 11.436L16.517 12.5699C16.6228 12.8785 16.9479 13.0096 17.2352 12.9016C17.5074 12.8013 17.6737 12.4928 17.5603 12.1842L17.3033 11.4592C17.8779 11.2509 18.392 11.6983 18.7549 12.7088L19.3144 14.2824C20.3502 17.175 19.4127 19.3811 16.8799 20.3222Z" fill="#1D1D1F"/>
</svg>
