<svg width="28" height="28" viewBox="0 0 28 28" fill="none" xmlns="http://www.w3.org/2000/svg">
<path fill-rule="evenodd" clip-rule="evenodd" d="M16.6246 5.14933C16.7968 5.27294 16.9128 5.45979 16.9473 5.66887C16.9818 5.87795 16.9319 6.09217 16.8086 6.26453L6.35745 20.8389H23.9991C24.2112 20.8389 24.4147 20.9232 24.5647 21.0732C24.7148 21.2233 24.799 21.4268 24.799 21.6389C24.799 21.8511 24.7148 22.0546 24.5647 22.2046C24.4147 22.3546 24.2112 22.4389 23.9991 22.4389H4.79905C4.65208 22.4388 4.50799 22.3981 4.38261 22.3214C4.25723 22.2447 4.15539 22.135 4.08828 22.0042C4.02116 21.8735 3.99137 21.7268 4.00216 21.5802C4.01295 21.4336 4.06391 21.2928 4.14945 21.1733L15.5094 5.33333C15.6331 5.16121 15.8199 5.04517 16.029 5.01068C16.2381 4.97618 16.4523 5.02604 16.6246 5.14933ZM20.159 12.0389C20.159 11.8268 20.2433 11.6233 20.3934 11.4732C20.5434 11.3232 20.7469 11.2389 20.9591 11.2389C21.1712 11.2389 21.3747 11.3232 21.5247 11.4732C21.6748 11.6233 21.7591 11.8268 21.7591 12.0389C21.7591 12.2511 21.6748 12.4546 21.5247 12.6046C21.3747 12.7546 21.1712 12.8389 20.9591 12.8389C20.7469 12.8389 20.5434 12.7546 20.3934 12.6046C20.2433 12.4546 20.159 12.2511 20.159 12.0389ZM19.039 8.03893C18.8269 8.03893 18.6234 8.12321 18.4734 8.27324C18.3233 8.42327 18.239 8.62675 18.239 8.83893C18.239 9.0511 18.3233 9.25458 18.4734 9.40461C18.6234 9.55464 18.8269 9.63893 19.039 9.63893C19.2512 9.63893 19.4547 9.55464 19.6047 9.40461C19.7548 9.25458 19.839 9.0511 19.839 8.83893C19.839 8.62675 19.7548 8.42327 19.6047 8.27324C19.4547 8.12321 19.2512 8.03893 19.039 8.03893ZM21.7591 15.2389C21.7591 15.0268 21.8433 14.8233 21.9934 14.6732C22.1434 14.5232 22.3469 14.4389 22.559 14.4389C22.7712 14.4389 22.9747 14.5232 23.1247 14.6732C23.2748 14.8233 23.3591 15.0268 23.3591 15.2389C23.3591 15.4511 23.2748 15.6546 23.1247 15.8046C22.9747 15.9546 22.7712 16.0389 22.559 16.0389C22.3469 16.0389 22.1434 15.9546 21.9934 15.8046C21.8433 15.6546 21.7591 15.4511 21.7591 15.2389ZM23.839 17.6389C23.6269 17.6389 23.4234 17.7232 23.2734 17.8732C23.1233 18.0233 23.039 18.2268 23.039 18.4389C23.039 18.6511 23.1233 18.8546 23.2734 19.0046C23.4234 19.1546 23.6269 19.2389 23.839 19.2389C24.0512 19.2389 24.2547 19.1546 24.4047 19.0046C24.5548 18.8546 24.639 18.6511 24.639 18.4389C24.639 18.2268 24.5548 18.0233 24.4047 17.8732C24.2547 17.7232 24.0512 17.6389 23.839 17.6389Z" fill="#1D1D1F"/>
</svg>
