<svg width="28" height="28" viewBox="0 0 28 28" fill="none" xmlns="http://www.w3.org/2000/svg">
<path fill-rule="evenodd" clip-rule="evenodd" d="M10 13.75C10 12.7554 10.3951 11.8016 11.0983 11.0983C11.8016 10.3951 12.7554 10 13.75 10C14.7446 10 15.6984 10.3951 16.4017 11.0983C17.1049 11.8016 17.5 12.7554 17.5 13.75C17.5 14.7446 17.1049 15.6984 16.4017 16.4017C15.6984 17.1049 14.7446 17.5 13.75 17.5C12.7554 17.5 11.8016 17.1049 11.0983 16.4017C10.3951 15.6984 10 14.7446 10 13.75ZM13.75 11.5C13.1533 11.5 12.581 11.7371 12.159 12.159C11.7371 12.581 11.5 13.1533 11.5 13.75C11.5 14.3467 11.7371 14.919 12.159 15.341C12.581 15.7629 13.1533 16 13.75 16C14.3467 16 14.919 15.7629 15.341 15.341C15.7629 14.919 16 14.3467 16 13.75C16 13.1533 15.7629 12.581 15.341 12.159C14.919 11.7371 14.3467 11.5 13.75 11.5Z" fill="#1D1D1F"/>
<path fill-rule="evenodd" clip-rule="evenodd" d="M6.073 12.396C5.654 13 5.5 13.473 5.5 13.75C5.5 14.027 5.654 14.5 6.073 15.104C6.479 15.687 7.081 16.32 7.843 16.905C9.37 18.077 11.463 19 13.75 19C16.037 19 18.13 18.077 19.657 16.905C20.419 16.32 21.021 15.687 21.427 15.104C21.846 14.5 22 14.027 22 13.75C22 13.473 21.846 13 21.427 12.396C21.021 11.813 20.419 11.18 19.657 10.595C18.13 9.423 16.037 8.5 13.75 8.5C11.463 8.5 9.37 9.423 7.843 10.595C7.081 11.18 6.479 11.813 6.073 12.396ZM6.929 9.405C8.66 8.077 11.066 7 13.75 7C16.434 7 18.84 8.077 20.57 9.405C21.437 10.07 22.153 10.812 22.659 11.541C23.151 12.25 23.5 13.027 23.5 13.75C23.5 14.473 23.15 15.25 22.659 15.959C22.153 16.688 21.437 17.429 20.571 18.095C18.841 19.423 16.434 20.5 13.75 20.5C11.066 20.5 8.66 19.423 6.93 18.095C6.063 17.43 5.347 16.688 4.841 15.959C4.35 15.25 4 14.473 4 13.75C4 13.027 4.35 12.25 4.841 11.541C5.347 10.812 6.063 10.071 6.929 9.405Z" fill="#1D1D1F"/>
</svg>
