<svg width="41" height="44" viewBox="0 0 41 44" fill="none" xmlns="http://www.w3.org/2000/svg">
<path d="M27.1036 27.8741L23.8369 24.3741C24.6598 23.2943 25.0641 21.917 24.9662 20.5268C24.8683 19.1367 24.2756 17.8401 23.3107 16.9048C22.3458 15.9696 21.0825 15.4672 19.7818 15.5017C18.481 15.5361 17.2423 16.1046 16.3217 17.0897C15.4011 18.0748 14.8689 19.4012 14.8351 20.7948C14.8013 22.1884 15.2685 23.5427 16.1402 24.5777C17.0118 25.6127 18.2213 26.2493 19.5186 26.356C20.8159 26.4628 22.1019 26.0314 23.1108 25.1511L26.3775 28.6511C26.4251 28.7022 26.4817 28.7427 26.544 28.7703C26.6063 28.798 26.6731 28.8122 26.7405 28.8122C26.808 28.8122 26.8747 28.798 26.937 28.7703C26.9993 28.7427 27.0559 28.7022 27.1036 28.6511C27.1513 28.6 27.1891 28.5394 27.2149 28.4726C27.2407 28.4059 27.254 28.3343 27.254 28.2621C27.254 28.1898 27.2407 28.1183 27.2149 28.0516C27.1891 27.9848 27.1513 27.9242 27.1036 27.8731V27.8741ZM15.884 20.9491C15.8842 20.0949 16.1208 19.26 16.5638 18.5498C17.0069 17.8397 17.6365 17.2863 18.3731 16.9596C19.1097 16.6328 19.9202 16.5474 20.7021 16.7142C21.4839 16.881 22.2021 17.2924 22.7658 17.8964C23.3294 18.5005 23.7133 19.2701 23.8687 20.1079C24.0242 20.9456 23.9443 21.814 23.6392 22.6031C23.3341 23.3923 22.8174 24.0667 22.1545 24.5413C21.4916 25.0158 20.7123 25.2691 19.9151 25.2691C18.8461 25.268 17.8212 24.8125 17.0654 24.0026C16.3096 23.1926 15.8847 22.0944 15.884 20.9491Z" fill="black"/>
</svg>
