<svg width="40" height="44" viewBox="0 0 40 44" fill="none" xmlns="http://www.w3.org/2000/svg">
<path d="M26.7061 26.7482C26.4639 27.3255 26.1647 27.8761 25.8131 28.3912C25.3435 29.0773 24.9578 29.5513 24.6621 29.8152C24.203 30.2463 23.7097 30.4681 23.1823 30.4806C22.8045 30.4806 22.3479 30.3706 21.8161 30.147C21.2826 29.9243 20.7928 29.8152 20.3442 29.8152C19.8745 29.8152 19.3707 29.9243 18.8311 30.147C18.2923 30.3706 17.8568 30.4878 17.5235 30.4985C17.0189 30.5209 16.5142 30.2937 16.0113 29.8152C15.6903 29.5289 15.2889 29.037 14.807 28.3411C14.2909 27.5997 13.8667 26.7366 13.5344 25.7554C13.1784 24.6937 13 23.6669 13 22.6723C13 21.5337 13.2405 20.5507 13.7224 19.7279C14.0869 19.0816 14.608 18.5422 15.2355 18.1617C15.8543 17.7822 16.5606 17.5778 17.2821 17.5696C17.6845 17.5696 18.2118 17.6966 18.8652 17.9471C19.5185 18.1975 19.9383 18.3245 20.1211 18.3245C20.2593 18.3245 20.7237 18.1751 21.5144 17.8791C22.2604 17.6045 22.8902 17.4909 23.4062 17.5356C24.8056 17.651 25.856 18.2145 26.5548 19.2306C25.3041 20.006 24.6858 21.091 24.698 22.4836C24.7085 23.5685 25.0942 24.471 25.8499 25.1874C26.184 25.5144 26.5738 25.776 27 25.9593C26.9073 26.2339 26.8093 26.496 26.7061 26.7482ZM23.4989 13.8408C23.4989 14.6905 23.1945 15.4847 22.5902 16.219C21.859 17.092 20.9756 17.5973 20.0179 17.5177C20.0054 17.4109 19.9993 17.3034 19.9996 17.1958C19.9996 16.3791 20.3459 15.5062 20.9643 14.7915C21.2721 14.4302 21.664 14.1288 22.1389 13.8891C22.6129 13.6529 23.0607 13.5224 23.4823 13.5C23.4937 13.6145 23.4989 13.7281 23.4989 13.8408Z" fill="black"/>
</svg>
