<svg width="24" height="25" viewBox="0 0 24 25" fill="none" xmlns="http://www.w3.org/2000/svg">
<path d="M18.2663 18.3741L14.9996 14.8741C15.8226 13.7943 16.2268 12.417 16.1289 11.0268C16.031 9.63673 15.4383 8.34006 14.4734 7.40482C13.5086 6.46958 12.2452 5.96725 10.9445 6.00166C9.64374 6.03607 8.40506 6.60458 7.48443 7.5897C6.5638 8.57482 6.03159 9.90125 5.99781 11.2948C5.96402 12.6884 6.43123 14.0427 7.30288 15.0777C8.17454 16.1127 9.384 16.7493 10.6813 16.856C11.9786 16.9628 13.2646 16.5314 14.2735 15.6511L17.5402 19.1511C17.5879 19.2022 17.6445 19.2427 17.7068 19.2703C17.7691 19.298 17.8358 19.3122 17.9032 19.3122C17.9707 19.3122 18.0374 19.298 18.0997 19.2703C18.162 19.2427 18.2186 19.2022 18.2663 19.1511C18.314 19.1 18.3518 19.0394 18.3776 18.9726C18.4034 18.9059 18.4167 18.8343 18.4167 18.7621C18.4167 18.6898 18.4034 18.6183 18.3776 18.5516C18.3518 18.4848 18.314 18.4242 18.2663 18.3731V18.3741ZM7.04671 11.4491C7.0469 10.5949 7.28347 9.75997 7.72653 9.04985C8.16958 8.33972 8.79921 7.7863 9.53581 7.45956C10.2724 7.13282 11.0829 7.04743 11.8648 7.21419C12.6467 7.38096 13.3648 7.79238 13.9285 8.39644C14.4922 9.00051 14.876 9.77008 15.0315 10.6079C15.1869 11.4456 15.107 12.314 14.8019 13.1031C14.4968 13.8923 13.9801 14.5667 13.3172 15.0413C12.6543 15.5158 11.875 15.7691 11.0778 15.7691C10.0088 15.768 8.98393 15.3125 8.22815 14.5026C7.47237 13.6926 7.04746 12.5944 7.04671 11.4491Z" fill="black"/>
</svg>
