<svg width="24" height="25" viewBox="0 0 24 25" fill="none" xmlns="http://www.w3.org/2000/svg">
<path fill-rule="evenodd" clip-rule="evenodd" d="M17.4045 17.9C17.4045 18.5 16.9083 19 16.3129 19H7.58006C6.98464 19 6.48846 18.5 6.48846 17.9V10C6.48846 9.5 6.98464 9 7.58006 9H16.4121C17.0075 9 17.4045 9.5 17.4045 10.1V17.9ZM11.9465 6C13.1373 6 14.0304 6.9 14.2289 8H9.66403C9.86251 6.9 10.7556 6 11.9465 6ZM16.3129 8H15.2213C15.0228 6.3 13.6335 5 11.9465 5C10.2595 5 8.87014 6.3 8.67167 8H7.58006C6.38922 8 5.49609 8.9 5.49609 10.1V18C5.49609 19.1 6.38922 20 7.58006 20H16.4121C17.5037 20 18.4961 19.1 18.4961 17.9V10C18.3969 8.9 17.5037 8 16.3129 8Z" fill="black"/>
</svg>
