<svg width="40" height="44" viewBox="0 0 40 44" fill="none" xmlns="http://www.w3.org/2000/svg">
<path fill-rule="evenodd" clip-rule="evenodd" d="M25.4085 27.4C25.4085 28 24.9123 28.5 24.3169 28.5H15.584C14.9886 28.5 14.4924 28 14.4924 27.4V19.5C14.4924 19 14.9886 18.5 15.584 18.5H24.4161C25.0115 18.5 25.4085 19 25.4085 19.6V27.4ZM19.9504 15.5C21.1413 15.5 22.0344 16.4 22.2329 17.5H17.668C17.8665 16.4 18.7596 15.5 19.9504 15.5ZM24.3169 17.5H23.2253C23.0268 15.8 21.6375 14.5 19.9504 14.5C18.2634 14.5 16.8741 15.8 16.6756 17.5H15.584C14.3932 17.5 13.5001 18.4 13.5001 19.6V27.5C13.5001 28.6 14.3932 29.5 15.584 29.5H24.4161C25.5077 29.5 26.5001 28.6 26.5001 27.4V19.5C26.4008 18.4 25.5077 17.5 24.3169 17.5Z" fill="black"/>
</svg>
