<svg width="24" height="25" viewBox="0 0 24 25" fill="none" xmlns="http://www.w3.org/2000/svg">
<path d="M18.7022 17.2482C18.46 17.8255 18.1608 18.3761 17.8092 18.8912C17.3396 19.5773 16.9539 20.0513 16.6582 20.3152C16.1991 20.7463 15.7058 20.9681 15.1784 20.9806C14.8006 20.9806 14.344 20.8706 13.8122 20.647C13.2787 20.4243 12.7889 20.3152 12.3403 20.3152C11.8706 20.3152 11.3668 20.4243 10.8272 20.647C10.2884 20.8706 9.85284 20.9878 9.51962 20.9985C9.01496 21.0209 8.51031 20.7937 8.0074 20.3152C7.68642 20.0289 7.28497 19.537 6.80305 18.8411C6.28703 18.0997 5.86284 17.2366 5.53048 16.2554C5.17452 15.1937 4.99609 14.1669 4.99609 13.1723C4.99609 12.0337 5.23661 11.0507 5.71853 10.2279C6.08302 9.58161 6.60412 9.04225 7.23162 8.66173C7.85038 8.2822 8.55674 8.07784 9.27822 8.06962C9.68054 8.06962 10.2079 8.19663 10.8613 8.44707C11.5146 8.69751 11.9344 8.82451 12.1172 8.82451C12.2554 8.82451 12.7198 8.67515 13.5105 8.37909C14.2565 8.1045 14.8863 7.99091 15.4023 8.03563C16.8017 8.15101 17.8521 8.7145 18.5509 9.73056C17.3002 10.506 16.6819 11.591 16.6941 12.9836C16.7046 14.0685 17.0903 14.971 17.846 15.6874C18.1801 16.0144 18.5699 16.276 18.9961 16.4593C18.9034 16.7339 18.8054 16.996 18.7022 17.2482ZM15.495 4.34078C15.495 5.19048 15.1906 5.98472 14.5863 6.71904C13.8551 7.592 12.9717 8.09735 12.014 8.01775C12.0015 7.9109 11.9954 7.80337 11.9957 7.69575C11.9957 6.87915 12.342 6.00619 12.9604 5.29155C13.2682 4.9302 13.6601 4.62878 14.135 4.38907C14.609 4.15295 15.0568 4.02236 15.4784 4C15.4898 4.11449 15.495 4.22808 15.495 4.34078Z" fill="black"/>
</svg>
