<svg width="24" height="24" viewBox="0 0 24 24" fill="none" xmlns="http://www.w3.org/2000/svg">
<path d="M17.2949 12.7969L9.79492 20.2969C9.58358 20.5082 9.29693 20.6269 8.99804 20.6269C8.69916 20.6269 8.41251 20.5082 8.20117 20.2969C7.98983 20.0855 7.87109 19.7989 7.87109 19.5C7.87109 19.2011 7.98983 18.9145 8.20117 18.7031L14.9052 12.0009L8.20305 5.29687C8.0984 5.19223 8.01539 5.06799 7.95875 4.93126C7.90212 4.79454 7.87297 4.64799 7.87297 4.5C7.87297 4.35201 7.90212 4.20546 7.95875 4.06873C8.01539 3.932 8.0984 3.80777 8.20305 3.70312C8.30769 3.59848 8.43193 3.51547 8.56865 3.45883C8.70538 3.4022 8.85193 3.37305 8.99992 3.37305C9.14791 3.37305 9.29446 3.4022 9.43119 3.45883C9.56791 3.51547 9.69215 3.59848 9.7968 3.70312L17.2968 11.2031C17.4016 11.3078 17.4846 11.4321 17.5412 11.5689C17.5979 11.7057 17.6269 11.8523 17.6267 12.0004C17.6266 12.1485 17.5972 12.295 17.5402 12.4317C17.4833 12.5684 17.3999 12.6925 17.2949 12.7969Z" fill="#424245"/>
</svg>
