<svg width="24" height="25" viewBox="0 0 24 25" fill="none" xmlns="http://www.w3.org/2000/svg">
<path d="M19.8952 15.897C19.7897 16.0023 19.6468 16.0615 19.4977 16.0615C19.3486 16.0615 19.2057 16.0023 19.1002 15.897L11.9977 8.79544L4.89519 15.897C4.78856 15.9964 4.64752 16.0505 4.5018 16.0479C4.35607 16.0453 4.21703 15.9863 4.11397 15.8832C4.01091 15.7802 3.95188 15.6411 3.94931 15.4954C3.94674 15.3497 4.00083 15.2086 4.10019 15.102L11.6002 7.60201C11.7057 7.49667 11.8486 7.4375 11.9977 7.4375C12.1467 7.4375 12.2897 7.49667 12.3952 7.60201L19.8952 15.102C20.0005 15.2075 20.0597 15.3504 20.0597 15.4995C20.0597 15.6486 20.0005 15.7915 19.8952 15.897Z" fill="#6E6E73"/>
</svg>
