<svg width="24" height="25" viewBox="0 0 24 25" fill="none" xmlns="http://www.w3.org/2000/svg">
<path d="M17.2461 3.6875H6.74609C6.398 3.6875 6.06416 3.82578 5.81802 4.07192C5.57187 4.31806 5.43359 4.6519 5.43359 5V21.5C5.43356 21.6004 5.46041 21.699 5.51136 21.7856C5.56231 21.8721 5.6355 21.9434 5.72333 21.9921C5.81116 22.0408 5.91042 22.0651 6.01081 22.0625C6.1112 22.0599 6.20906 22.0304 6.29422 21.9772L11.9952 18.4147L17.698 21.9772C17.7831 22.0304 17.881 22.0599 17.9814 22.0625C18.0818 22.0651 18.181 22.0408 18.2689 21.9921C18.3567 21.9434 18.4299 21.8721 18.4808 21.7856C18.5318 21.699 18.5586 21.6004 18.5586 21.5V5C18.5586 4.6519 18.4203 4.31806 18.1742 4.07192C17.928 3.82578 17.5942 3.6875 17.2461 3.6875ZM17.4336 20.4847L12.2933 17.2728C12.2039 17.2169 12.1006 17.1873 11.9952 17.1873C11.8897 17.1873 11.7864 17.2169 11.697 17.2728L6.55859 20.4847V5C6.55859 4.95027 6.57835 4.90258 6.61351 4.86742C6.64867 4.83225 6.69637 4.8125 6.74609 4.8125H17.2461C17.2958 4.8125 17.3435 4.83225 17.3787 4.86742C17.4138 4.90258 17.4336 4.95027 17.4336 5V20.4847Z" fill="#0066CC"/>
</svg>
