<svg width="10" height="14" viewBox="0 0 10 14" fill="none" xmlns="http://www.w3.org/2000/svg">
<path d="M9.87781 7.78942L5.71161 11.8801C5.6729 11.9181 5.62695 11.9483 5.57637 11.9688C5.5258 11.9894 5.47159 12 5.41685 12C5.36211 12 5.3079 11.9894 5.25733 11.9688C5.20675 11.9483 5.1608 11.9181 5.12209 11.8801C5.08338 11.8421 5.05268 11.797 5.03173 11.7473C5.01078 11.6977 5 11.6445 5 11.5907C5 11.537 5.01078 11.4837 5.03173 11.4341C5.05268 11.3844 5.08338 11.3393 5.12209 11.3013L8.99406 7.5L5.12209 3.69871C5.04392 3.62196 5 3.51785 5 3.4093C5 3.30075 5.04392 3.19664 5.12209 3.11988C5.20027 3.04312 5.3063 3 5.41685 3C5.52741 3 5.63344 3.04312 5.71161 3.11988L9.87781 7.21058C9.91655 7.24857 9.94728 7.29369 9.96824 7.34335C9.98921 7.39301 10 7.44624 10 7.5C10 7.55376 9.98921 7.60699 9.96824 7.65665C9.94728 7.70631 9.91655 7.75143 9.87781 7.78942Z" fill="#0066CC"/>
</svg>
