<svg width="33" height="33" viewBox="0 0 33 33" fill="none" xmlns="http://www.w3.org/2000/svg">
<path d="M27.5612 13.5605L17.5612 23.5605C17.4218 23.7003 17.2563 23.8113 17.0739 23.887C16.8916 23.9627 16.6961 24.0017 16.4987 24.0017C16.3013 24.0017 16.1058 23.9627 15.9235 23.887C15.7411 23.8113 15.5756 23.7003 15.4362 23.5605L5.4362 13.5605C5.1544 13.2787 4.99609 12.8965 4.99609 12.498C4.99609 12.0995 5.1544 11.7173 5.4362 11.4355C5.71799 11.1537 6.10018 10.9954 6.4987 10.9954C6.89721 10.9954 7.2794 11.1537 7.5612 11.4355L16.4999 20.3742L25.4387 11.4342C25.7205 11.1525 26.1027 10.9941 26.5012 10.9941C26.8997 10.9941 27.2819 11.1525 27.5637 11.4342C27.8455 11.716 28.0038 12.0982 28.0038 12.4967C28.0038 12.8953 27.8455 13.2775 27.5637 13.5592L27.5612 13.5605Z" fill="#6E6E73"/>
</svg>
