<svg width="53" height="53" viewBox="0 0 53 53" fill="none" xmlns="http://www.w3.org/2000/svg">
<circle cx="26.5" cy="26.5" r="26" fill="#E2E2E4"/>
<path d="M31.7949 27.2969L24.2949 34.7969C24.0836 35.0082 23.7969 35.1269 23.498 35.1269C23.1992 35.1269 22.9125 35.0082 22.7012 34.7969C22.4898 34.5855 22.3711 34.2989 22.3711 34C22.3711 33.7011 22.4898 33.4145 22.7012 33.2031L29.4052 26.5009L22.703 19.7969C22.5984 19.6922 22.5154 19.568 22.4588 19.4313C22.4021 19.2945 22.373 19.148 22.373 19C22.373 18.852 22.4021 18.7055 22.4588 18.5687C22.5154 18.432 22.5984 18.3078 22.703 18.2031C22.8077 18.0985 22.9319 18.0155 23.0687 17.9588C23.2054 17.9022 23.3519 17.873 23.4999 17.873C23.6479 17.873 23.7945 17.9022 23.9312 17.9588C24.0679 18.0155 24.1921 18.0985 24.2968 18.2031L31.7968 25.7031C31.9016 25.8078 31.9846 25.9321 32.0412 26.0689C32.0979 26.2057 32.1269 26.3523 32.1267 26.5004C32.1266 26.6485 32.0972 26.795 32.0402 26.9317C31.9833 27.0684 31.8999 27.1925 31.7949 27.2969Z" fill="#424245"/>
</svg>
