<svg width="24" height="25" viewBox="0 0 24 25" fill="none" xmlns="http://www.w3.org/2000/svg">
<path d="M17.2461 3.5H6.74609C6.34827 3.5 5.96674 3.65804 5.68543 3.93934C5.40413 4.22064 5.24609 4.60218 5.24609 5V21.5C5.24616 21.6338 5.28204 21.7652 5.35002 21.8805C5.418 21.9958 5.5156 22.0908 5.63268 22.1557C5.74977 22.2206 5.88207 22.2529 6.01587 22.2494C6.14967 22.2458 6.28009 22.2066 6.39359 22.1356L11.9961 18.6341L17.5995 22.1356C17.713 22.2063 17.8433 22.2454 17.977 22.2488C18.1107 22.2522 18.2428 22.2198 18.3597 22.155C18.4767 22.0902 18.5742 21.9953 18.6421 21.8801C18.71 21.7649 18.7459 21.6337 18.7461 21.5V5C18.7461 4.60218 18.5881 4.22064 18.3068 3.93934C18.0254 3.65804 17.6439 3.5 17.2461 3.5Z" fill="#0066CC"/>
</svg>
