<svg width="33" height="33" viewBox="0 0 33 33" fill="none" xmlns="http://www.w3.org/2000/svg">
<path d="M27.5612 21.5603C27.4218 21.7002 27.2563 21.8111 27.0739 21.8868C26.8916 21.9625 26.6961 22.0015 26.4987 22.0015C26.3013 22.0015 26.1058 21.9625 25.9235 21.8868C25.7411 21.8111 25.5756 21.7002 25.4362 21.5603L16.4999 12.6241L7.5612 21.5603C7.2794 21.8421 6.89721 22.0004 6.4987 22.0004C6.10018 22.0004 5.71799 21.8421 5.4362 21.5603C5.1544 21.2785 4.99609 20.8963 4.99609 20.4978C4.99609 20.0993 5.1544 19.7171 5.4362 19.4353L15.4362 9.43532C15.5756 9.29548 15.7411 9.18453 15.9235 9.10882C16.1058 9.03311 16.3013 8.99414 16.4987 8.99414C16.6961 8.99414 16.8916 9.03311 17.0739 9.10882C17.2563 9.18453 17.4218 9.29548 17.5612 9.43532L27.5612 19.4353C27.701 19.5747 27.812 19.7403 27.8877 19.9226C27.9634 20.1049 28.0024 20.3004 28.0024 20.4978C28.0024 20.6952 27.9634 20.8907 27.8877 21.0731C27.812 21.2554 27.701 21.421 27.5612 21.5603Z" fill="#6E6E73"/>
</svg>
