<svg width="24" height="25" viewBox="0 0 24 25" fill="none" xmlns="http://www.w3.org/2000/svg">
<path fill-rule="evenodd" clip-rule="evenodd" d="M18.6526 18.98C18.6526 19.7 18.0419 20.3 17.3091 20.3H6.56098C5.82815 20.3 5.21747 19.7 5.21747 18.98V9.5C5.21747 8.9 5.82815 8.3 6.56098 8.3H17.4312C18.164 8.3 18.6526 8.9 18.6526 9.62V18.98ZM11.935 4.7C13.4007 4.7 14.4999 5.78 14.7442 7.1H9.12586C9.37014 5.78 10.4694 4.7 11.935 4.7ZM17.3091 7.1H15.9656C15.7213 5.06 14.0114 3.5 11.935 3.5C9.85869 3.5 8.14877 5.06 7.90449 7.1H6.56098C5.09533 7.1 3.99609 8.18 3.99609 9.62V19.1C3.99609 20.42 5.09533 21.5 6.56098 21.5H17.4312C18.7747 21.5 19.9961 20.42 19.9961 18.98V9.5C19.874 8.18 18.7747 7.1 17.3091 7.1Z" fill="black"/>
<path d="M15.3492 16.5137C15.2281 16.8194 15.0785 17.1109 14.9027 17.3836C14.6678 17.7468 14.475 17.9977 14.3272 18.1374C14.0976 18.3657 13.8509 18.4831 13.5872 18.4897C13.3983 18.4897 13.17 18.4315 12.9042 18.3131C12.6374 18.1952 12.3925 18.1374 12.1682 18.1374C11.9333 18.1374 11.6815 18.1952 11.4116 18.3131C11.1422 18.4315 10.9245 18.4935 10.7579 18.4992C10.5055 18.511 10.2532 18.3908 10.0017 18.1374C9.84126 17.9859 9.64053 17.7255 9.39957 17.3571C9.14156 16.9645 8.92947 16.5076 8.76329 15.9881C8.5853 15.4261 8.49609 14.8825 8.49609 14.3559C8.49609 13.7531 8.61635 13.2327 8.85731 12.7971C9.03956 12.455 9.30011 12.1694 9.61385 11.968C9.92324 11.767 10.2764 11.6589 10.6372 11.6545C10.8383 11.6545 11.102 11.7217 11.4287 11.8543C11.7554 11.9869 11.9653 12.0542 12.0567 12.0542C12.1258 12.0542 12.358 11.9751 12.7533 11.8183C13.1263 11.673 13.4412 11.6128 13.6992 11.6365C14.3989 11.6976 14.9241 11.9959 15.2735 12.5338C14.6482 12.9444 14.339 13.5187 14.3451 14.256C14.3503 14.8304 14.5432 15.3082 14.921 15.6875C15.0881 15.8605 15.283 15.999 15.4961 16.0961C15.4497 16.2415 15.4008 16.3802 15.3492 16.5137ZM13.7455 9.68041C13.7455 10.1303 13.5934 10.5507 13.2912 10.9395C12.9256 11.4016 12.4839 11.6692 12.0051 11.627C11.9988 11.5705 11.9957 11.5135 11.9959 11.4566C11.9959 11.0243 12.169 10.5621 12.4782 10.1838C12.6322 9.99246 12.8281 9.83288 13.0655 9.70598C13.3026 9.58097 13.5265 9.51184 13.7372 9.5C13.7429 9.56061 13.7455 9.62075 13.7455 9.68041Z" fill="black"/>
</svg>
