<svg width="53" height="53" viewBox="0 0 53 53" fill="none" xmlns="http://www.w3.org/2000/svg">
<circle cx="26.5" cy="26.5" r="26" fill="#E2E2E4"/>
<path d="M30.2957 33.2031C30.5071 33.4145 30.6258 33.7011 30.6258 34C30.6258 34.2989 30.5071 34.5855 30.2957 34.7969C30.0844 35.0082 29.7977 35.127 29.4989 35.127C29.2 35.127 28.9133 35.0082 28.702 34.7969L21.202 27.2969C21.0971 27.1924 21.0139 27.0682 20.9571 26.9314C20.9003 26.7947 20.8711 26.6481 20.8711 26.5C20.8711 26.3519 20.9003 26.2053 20.9571 26.0686C21.0139 25.9318 21.0971 25.8076 21.202 25.7031L28.702 18.2031C28.9133 17.9918 29.2 17.873 29.4989 17.873C29.7977 17.873 30.0844 17.9918 30.2957 18.2031C30.5071 18.4145 30.6258 18.7011 30.6258 19C30.6258 19.2989 30.5071 19.5855 30.2957 19.7969L23.5935 26.4991L30.2957 33.2031Z" fill="#424245"/>
</svg>
