<svg width="16" height="17" viewBox="0 0 16 17" fill="none" xmlns="http://www.w3.org/2000/svg">
<path d="M11.2596 8.76541L6.25955 13.7654C6.18846 13.8317 6.09444 13.8677 5.99729 13.866C5.90014 13.8643 5.80745 13.8249 5.73874 13.7562C5.67004 13.6875 5.63068 13.5948 5.62896 13.4977C5.62725 13.4005 5.66331 13.3065 5.72955 13.2354L10.4639 8.50041L5.72955 3.76541C5.66331 3.69432 5.62725 3.6003 5.62896 3.50315C5.63068 3.406 5.67004 3.31331 5.73874 3.2446C5.80745 3.17589 5.90014 3.13654 5.99729 3.13482C6.09444 3.13311 6.18846 3.16917 6.25955 3.23541L11.2596 8.23541C11.3298 8.30572 11.3692 8.40104 11.3692 8.50041C11.3692 8.59979 11.3298 8.6951 11.2596 8.76541Z" fill="#0066CC"/>
</svg>
