<svg width="24" height="25" viewBox="0 0 24 25" fill="none" xmlns="http://www.w3.org/2000/svg">
<path d="M15.3931 19.6021C15.4484 19.6536 15.4927 19.7157 15.5234 19.7847C15.5542 19.8537 15.5707 19.9282 15.572 20.0037C15.5734 20.0793 15.5595 20.1543 15.5312 20.2243C15.5029 20.2944 15.4608 20.358 15.4074 20.4114C15.354 20.4648 15.2903 20.5069 15.2203 20.5352C15.1503 20.5635 15.0752 20.5774 14.9997 20.5761C14.9242 20.5748 14.8497 20.5582 14.7807 20.5275C14.7117 20.4967 14.6496 20.4524 14.5981 20.3971L7.0981 12.8971C6.99276 12.7917 6.93359 12.6487 6.93359 12.4996C6.93359 12.3506 6.99276 12.2076 7.0981 12.1021L14.5981 4.60214C14.7047 4.50278 14.8458 4.44869 14.9915 4.45126C15.1372 4.45383 15.2763 4.51286 15.3793 4.61592C15.4824 4.71898 15.5414 4.85802 15.544 5.00375C15.5466 5.14947 15.4925 5.29051 15.3931 5.39714L8.29154 12.4996L15.3931 19.6021Z" fill="black"/>
</svg>
