<svg width="16" height="17" viewBox="0 0 16 17" fill="none" xmlns="http://www.w3.org/2000/svg">
<path d="M7.9961 2.125C6.73524 2.125 5.5027 2.49889 4.45434 3.19938C3.40597 3.89988 2.58887 4.89551 2.10636 6.06039C1.62386 7.22527 1.49761 8.50707 1.74359 9.7437C1.98957 10.9803 2.59673 12.1162 3.48829 13.0078C4.37985 13.8994 5.51577 14.5065 6.7524 14.7525C7.98902 14.9985 9.27082 14.8722 10.4357 14.3897C11.6006 13.9072 12.5962 13.0901 13.2967 12.0418C13.9972 10.9934 14.3711 9.76086 14.3711 8.5C14.3691 6.80985 13.6968 5.1895 12.5017 3.99439C11.3066 2.79927 9.68624 2.12698 7.9961 2.125ZM7.9961 14.125C6.88358 14.125 5.79604 13.7951 4.87101 13.177C3.94599 12.5589 3.22502 11.6804 2.79927 10.6526C2.37353 9.62476 2.26214 8.49376 2.47918 7.40262C2.69622 6.31147 3.23195 5.30919 4.01862 4.52252C4.80529 3.73585 5.80757 3.20012 6.89871 2.98308C7.98986 2.76604 9.12086 2.87743 10.1487 3.30318C11.1765 3.72892 12.055 4.44989 12.6731 5.37492C13.2912 6.29994 13.6211 7.38748 13.6211 8.5C13.6194 9.99133 13.0263 11.4211 11.9717 12.4756C10.9172 13.5302 9.48743 14.1233 7.9961 14.125ZM10.8711 8.5C10.8711 8.59946 10.8316 8.69484 10.7613 8.76517C10.6909 8.83549 10.5956 8.875 10.4961 8.875H8.3711V11C8.3711 11.0995 8.33159 11.1948 8.26126 11.2652C8.19094 11.3355 8.09555 11.375 7.9961 11.375C7.89664 11.375 7.80126 11.3355 7.73093 11.2652C7.66061 11.1948 7.6211 11.0995 7.6211 11V8.875H5.4961C5.39664 8.875 5.30126 8.83549 5.23093 8.76517C5.16061 8.69484 5.1211 8.59946 5.1211 8.5C5.1211 8.40054 5.16061 8.30516 5.23093 8.23484C5.30126 8.16451 5.39664 8.125 5.4961 8.125H7.6211V6C7.6211 5.90054 7.66061 5.80516 7.73093 5.73484C7.80126 5.66451 7.89664 5.625 7.9961 5.625C8.09555 5.625 8.19094 5.66451 8.26126 5.73484C8.33159 5.80516 8.3711 5.90054 8.3711 6V8.125H10.4961C10.5956 8.125 10.6909 8.16451 10.7613 8.23484C10.8316 8.30516 10.8711 8.40054 10.8711 8.5Z" fill="#1D1D1F"/>
</svg>
