<svg width="24" height="25" viewBox="0 0 24 25" fill="none" xmlns="http://www.w3.org/2000/svg">
<path d="M19.8952 9.89714L12.3952 17.3971C12.2897 17.5025 12.1468 17.5616 11.9977 17.5616C11.8486 17.5616 11.7057 17.5025 11.6002 17.3971L4.10019 9.89714C4.00083 9.79051 3.94674 9.64948 3.94931 9.50375C3.95188 9.35802 4.01091 9.21898 4.11397 9.11592C4.21703 9.01287 4.35607 8.95383 4.5018 8.95126C4.64752 8.94869 4.78856 9.00278 4.89519 9.10214L11.9977 16.2037L19.1002 9.10214C19.2068 9.00278 19.3479 8.94869 19.4936 8.95126C19.6393 8.95383 19.7783 9.01287 19.8814 9.11592C19.9845 9.21898 20.0435 9.35802 20.0461 9.50375C20.0486 9.64948 19.9945 9.79051 19.8952 9.89714Z" fill="#6E6E73"/>
</svg>
