<svg width="16" height="17" viewBox="0 0 16 17" fill="none" xmlns="http://www.w3.org/2000/svg">
<path d="M7.9961 2C6.71052 2 5.45381 2.38122 4.38489 3.09545C3.31597 3.80968 2.48285 4.82484 1.99088 6.01256C1.49891 7.20028 1.37019 8.50721 1.62099 9.76809C1.8718 11.029 2.49086 12.1872 3.3999 13.0962C4.30894 14.0052 5.46713 14.6243 6.72801 14.8751C7.98889 15.1259 9.29582 14.9972 10.4835 14.5052C11.6713 14.0132 12.6864 13.1801 13.4006 12.1112C14.1149 11.0423 14.4961 9.78558 14.4961 8.5C14.4939 6.77675 13.8084 5.1247 12.5899 3.90618C11.3714 2.68766 9.71934 2.00215 7.9961 2ZM10.4961 9H8.4961V11C8.4961 11.1326 8.44342 11.2598 8.34965 11.3536C8.25588 11.4473 8.12871 11.5 7.9961 11.5C7.86349 11.5 7.73631 11.4473 7.64254 11.3536C7.54878 11.2598 7.4961 11.1326 7.4961 11V9H5.4961C5.36349 9 5.23631 8.94732 5.14254 8.85355C5.04878 8.75979 4.9961 8.63261 4.9961 8.5C4.9961 8.36739 5.04878 8.24021 5.14254 8.14645C5.23631 8.05268 5.36349 8 5.4961 8H7.4961V6C7.4961 5.86739 7.54878 5.74021 7.64254 5.64645C7.73631 5.55268 7.86349 5.5 7.9961 5.5C8.12871 5.5 8.25588 5.55268 8.34965 5.64645C8.44342 5.74021 8.4961 5.86739 8.4961 6V8H10.4961C10.6287 8 10.7559 8.05268 10.8497 8.14645C10.9434 8.24021 10.9961 8.36739 10.9961 8.5C10.9961 8.63261 10.9434 8.75979 10.8497 8.85355C10.7559 8.94732 10.6287 9 10.4961 9Z" fill="#1D1D1F"/>
</svg>
