<svg width="17" height="17" viewBox="0 0 17 17" fill="none" xmlns="http://www.w3.org/2000/svg">
<path d="M11.7635 8.76541L6.76346 13.7654C6.69237 13.8317 6.59835 13.8677 6.5012 13.866C6.40405 13.8643 6.31135 13.8249 6.24265 13.7562C6.17394 13.6875 6.13459 13.5948 6.13287 13.4977C6.13116 13.4005 6.16722 13.3065 6.23346 13.2354L10.9678 8.50041L6.23346 3.76541C6.16722 3.69432 6.13116 3.6003 6.13287 3.50315C6.13459 3.406 6.17394 3.31331 6.24265 3.2446C6.31135 3.17589 6.40405 3.13654 6.5012 3.13482C6.59835 3.13311 6.69237 3.16917 6.76346 3.23541L11.7635 8.23541C11.8337 8.30572 11.8731 8.40104 11.8731 8.50041C11.8731 8.59979 11.8337 8.6951 11.7635 8.76541Z" fill="#0066CC"/>
</svg>
