<svg width="24" height="25" viewBox="0 0 24 25" fill="none" xmlns="http://www.w3.org/2000/svg">
<g clip-path="url(#clip0_471_1481)">
<path d="M23.0183 11.5419L21.7058 8.26062C21.6091 8.01654 21.4411 7.80726 21.2237 7.6601C21.0063 7.51293 20.7496 7.4347 20.487 7.43563H17.0586V6.5C17.0586 6.35082 16.9993 6.20774 16.8938 6.10225C16.7884 5.99676 16.6453 5.9375 16.4961 5.9375H2.24609C1.898 5.9375 1.56416 6.07578 1.31802 6.32192C1.07187 6.56806 0.933594 6.9019 0.933594 7.25V17.75C0.933594 18.0981 1.07187 18.4319 1.31802 18.6781C1.56416 18.9242 1.898 19.0625 2.24609 19.0625H3.98984C4.11895 19.6983 4.46388 20.2699 4.9662 20.6805C5.46852 21.091 6.09733 21.3153 6.74609 21.3153C7.39486 21.3153 8.02367 21.091 8.52599 20.6805C9.02831 20.2699 9.37324 19.6983 9.50234 19.0625H14.4898C14.6189 19.6983 14.9639 20.2699 15.4662 20.6805C15.9685 21.091 16.5973 21.3153 17.2461 21.3153C17.8949 21.3153 18.5237 21.091 19.026 20.6805C19.5283 20.2699 19.8732 19.6983 20.0023 19.0625H21.7461C22.0942 19.0625 22.428 18.9242 22.6742 18.6781C22.9203 18.4319 23.0586 18.0981 23.0586 17.75V11.75C23.0585 11.6787 23.0448 11.6081 23.0183 11.5419ZM17.0586 8.5625H20.488C20.5255 8.56246 20.5622 8.5737 20.5933 8.59477C20.6244 8.61583 20.6484 8.64574 20.6623 8.68063L21.6655 11.1875H17.0586V8.5625ZM2.05859 7.25C2.05859 7.20027 2.07835 7.15258 2.11351 7.11742C2.14867 7.08225 2.19637 7.0625 2.24609 7.0625H15.9336V13.4375H2.05859V7.25ZM6.74609 20.1875C6.41234 20.1875 6.08608 20.0885 5.80857 19.9031C5.53106 19.7177 5.31477 19.4541 5.18705 19.1458C5.05932 18.8374 5.02591 18.4981 5.09102 18.1708C5.15613 17.8434 5.31685 17.5428 5.55285 17.3068C5.78885 17.0708 6.08954 16.91 6.41688 16.8449C6.74422 16.7798 7.08352 16.8132 7.39187 16.941C7.70022 17.0687 7.96377 17.285 8.1492 17.5625C8.33462 17.84 8.43359 18.1662 8.43359 18.5C8.43359 18.9476 8.2558 19.3768 7.93934 19.6932C7.62287 20.0097 7.19365 20.1875 6.74609 20.1875ZM14.4898 17.9375H9.50234C9.37324 17.3017 9.02831 16.7301 8.52599 16.3195C8.02367 15.909 7.39486 15.6847 6.74609 15.6847C6.09733 15.6847 5.46852 15.909 4.9662 16.3195C4.46388 16.7301 4.11895 17.3017 3.98984 17.9375H2.24609C2.19637 17.9375 2.14867 17.9177 2.11351 17.8826C2.07835 17.8474 2.05859 17.7997 2.05859 17.75V14.5625H15.9336V16.0138C15.5661 16.2082 15.2461 16.4815 14.9965 16.8141C14.7469 17.1467 14.5739 17.5303 14.4898 17.9375ZM17.2461 20.1875C16.9123 20.1875 16.5861 20.0885 16.3086 19.9031C16.0311 19.7177 15.8148 19.4541 15.687 19.1458C15.5593 18.8374 15.5259 18.4981 15.591 18.1708C15.6561 17.8434 15.8168 17.5428 16.0529 17.3068C16.2889 17.0708 16.5895 16.91 16.9169 16.8449C17.2442 16.7798 17.5835 16.8132 17.8919 16.941C18.2002 17.0687 18.4638 17.285 18.6492 17.5625C18.8346 17.84 18.9336 18.1662 18.9336 18.5C18.9336 18.9476 18.7558 19.3768 18.4393 19.6932C18.1229 20.0097 17.6936 20.1875 17.2461 20.1875ZM21.9336 17.75C21.9336 17.7997 21.9138 17.8474 21.8787 17.8826C21.8435 17.9177 21.7958 17.9375 21.7461 17.9375H20.0023C19.8719 17.3026 19.5264 16.7322 19.0244 16.3223C18.5223 15.9125 17.8942 15.6882 17.2461 15.6875C17.1833 15.6875 17.1205 15.6875 17.0586 15.6941V12.3125H21.9336V17.75Z" fill="black"/>
</g>
<defs>
<clipPath id="clip0_471_1481">
<rect width="24" height="24" fill="white" transform="translate(-0.00390625 0.5)"/>
</clipPath>
</defs>
</svg>
