<svg width="24" height="25" viewBox="0 0 24 25" fill="none" xmlns="http://www.w3.org/2000/svg">
<path d="M16.8952 12.8971L9.39519 20.3971C9.28856 20.4965 9.14752 20.5506 9.0018 20.548C8.85607 20.5455 8.71703 20.4864 8.61397 20.3834C8.51091 20.2803 8.45188 20.1413 8.44931 19.9955C8.44674 19.8498 8.50083 19.7088 8.60019 19.6021L15.7018 12.4996L8.60019 5.39714C8.50083 5.29051 8.44674 5.14947 8.44931 5.00375C8.45188 4.85802 8.51091 4.71898 8.61397 4.61592C8.71703 4.51286 8.85607 4.45383 9.0018 4.45126C9.14752 4.44869 9.28856 4.50278 9.39519 4.60214L16.8952 12.1021C17.0005 12.2076 17.0597 12.3506 17.0597 12.4996C17.0597 12.6487 17.0005 12.7917 16.8952 12.8971Z" fill="black"/>
</svg>
