<svg width="56" height="57" viewBox="0 0 56 57" fill="none" xmlns="http://www.w3.org/2000/svg">
<path d="M40.8464 22.9468H38.4561V28.0919C38.4561 29.1964 39.3516 30.0919 40.4561 30.0919H47.6382V29.3933L42.3204 23.595C41.9416 23.1819 41.4069 22.9468 40.8464 22.9468Z" fill="#E30000"/>
<circle cx="15.2823" cy="40.6271" r="4.82876" stroke="#E30000" stroke-width="2"/>
<circle cx="40.4534" cy="40.6466" r="4.82876" stroke="#E30000" stroke-width="2"/>
<path fill-rule="evenodd" clip-rule="evenodd" d="M10.5327 10.0249C6.66674 10.0249 3.53273 13.1589 3.53273 17.0249V34.387C3.53273 37.8998 6.12019 40.8082 9.49319 41.3103C9.46702 41.0862 9.45357 40.8582 9.45357 40.6271C9.45357 40.171 9.50596 39.7271 9.60506 39.3011C7.28688 38.8662 5.53273 36.8315 5.53273 34.387V17.0249C5.53273 14.2635 7.77131 12.0249 10.5327 12.0249H29.828C32.5894 12.0249 34.828 14.2635 34.828 17.0249V20.2889V39.1148C35.1578 37.9005 35.8703 36.8439 36.828 36.0822V21.2889H40.4178C41.8189 21.2889 43.1557 21.8767 44.1027 22.9093L49.1522 28.415C49.998 29.3373 50.4673 30.5432 50.4673 31.7946V38.387C50.4673 38.9393 50.0196 39.387 49.4673 39.387H46.1456C46.235 39.7926 46.2821 40.2141 46.2821 40.6466C46.2821 40.8974 46.2663 41.1445 46.2355 41.387H49.4673C51.1241 41.387 52.4673 40.0439 52.4673 38.387V31.7946C52.4673 30.0426 51.8103 28.3544 50.6262 27.0632L45.5767 21.5575C44.2509 20.1119 42.3793 19.2889 40.4178 19.2889H36.828V17.0249C36.828 13.1589 33.694 10.0249 29.828 10.0249H10.5327ZM34.6712 41.387C34.6404 41.1445 34.6246 40.8974 34.6246 40.6466C34.6246 40.2141 34.6717 39.7926 34.7611 39.387H20.9789C21.0655 39.7866 21.1111 40.2015 21.1111 40.6271C21.1111 40.8846 21.0944 41.1383 21.062 41.387H34.6712Z" fill="#E30000"/>
</svg>
