<svg width="56" height="57" viewBox="0 0 56 57" fill="none" xmlns="http://www.w3.org/2000/svg">
<rect x="10.9772" y="11.2271" width="34.0456" height="34.0456" rx="5" stroke="#E30000" stroke-width="2"/>
<path fill-rule="evenodd" clip-rule="evenodd" d="M28 17.5669C29.9938 17.5669 31.6469 19.0256 31.9502 20.9341H24.0498C24.3531 19.0256 26.0062 17.5669 28 17.5669ZM28 16.5669C25.4529 16.5669 23.3507 18.4714 23.0397 20.9341H21C19.3431 20.9341 18 22.2772 18 23.9341V36.9341C18 38.5909 19.3431 39.9341 21 39.9341H35C36.6569 39.9341 38 38.5909 38 36.9341V23.9341C38 22.2772 36.6569 20.9341 35 20.9341H32.9603C32.6493 18.4714 30.5471 16.5669 28 16.5669ZM31.4602 27.929C31.4717 27.9214 31.4796 27.9162 31.4833 27.9134C30.8672 27.0307 29.9312 27.007 29.6705 27.0069C29.2722 27.0069 28.9157 27.1482 28.6159 27.2671C28.3986 27.3532 28.2111 27.4275 28.0592 27.4275C27.8916 27.4275 27.6997 27.35 27.4856 27.2634C27.2153 27.1542 26.9095 27.0306 26.5723 27.0306C25.4349 27.0306 24.2797 27.9725 24.2797 29.7497C24.2797 30.8575 24.7063 32.0245 25.2335 32.7769C25.6896 33.4167 26.0865 33.938 26.6552 33.938C26.9249 33.938 27.1227 33.854 27.3306 33.7658C27.5612 33.6679 27.8043 33.5648 28.1718 33.5648C28.5429 33.5648 28.7648 33.6616 28.9787 33.755C29.1781 33.8421 29.3706 33.9261 29.6706 33.9261C30.2926 33.9261 30.7013 33.3634 31.0923 32.8006C31.5307 32.1608 31.7144 31.5328 31.7203 31.5032C31.6847 31.4914 30.494 31.0116 30.494 29.655C30.494 28.5631 31.3051 28.0308 31.4602 27.929ZM29.8305 24.981C29.8305 25.449 29.6291 25.917 29.3448 26.2547C29.0426 26.6279 28.5213 26.9063 28.1066 26.9064C28.0592 26.9064 28.0118 26.9004 27.9822 26.8945C27.9763 26.8708 27.9644 26.7997 27.9644 26.7286C27.9644 26.2547 28.2073 25.7867 28.468 25.4905C28.7997 25.1054 29.3507 24.8151 29.8128 24.7974C29.8246 24.8507 29.8305 24.9159 29.8305 24.981Z" fill="#E30000"/>
</svg>
