<svg width="56" height="57" viewBox="0 0 56 57" fill="none" xmlns="http://www.w3.org/2000/svg">
<path d="M10.9162 33.8047L10.9162 39.2456C10.9162 42.5593 13.6025 45.2456 16.9162 45.2456L38.9162 45.2456C42.2299 45.2456 44.9162 42.5593 44.9162 39.2456L44.9162 28.3792M10.9162 33.8047L7.72832 36.9925M10.9162 33.8047L14.1041 36.9925" stroke="#E30000" stroke-width="2" stroke-linecap="round" stroke-linejoin="round"/>
<path d="M45.0838 22.6953V17.2544C45.0838 13.9407 42.3975 11.2544 39.0838 11.2544H17.0838C13.7701 11.2544 11.0838 13.9407 11.0838 17.2544V28.1208M45.0838 22.6953L48.2717 19.5074M45.0838 22.6953L41.8959 19.5074" stroke="#E30000" stroke-width="2" stroke-linecap="round" stroke-linejoin="round"/>
<rect x="32.7283" y="24.8506" width="6.2" height="10.168" rx="1.5" stroke="#E30000" stroke-linecap="round" stroke-linejoin="round"/>
<path fill-rule="evenodd" clip-rule="evenodd" d="M20.1077 20.981C18.9479 20.981 18.0077 21.9212 18.0077 23.081V33.7846C18.0077 34.1159 18.2763 34.3846 18.6077 34.3846C18.9391 34.3846 19.2077 34.1159 19.2077 33.7846V23.081C19.2077 22.5839 19.6107 22.181 20.1077 22.181H35.5057C36.0027 22.181 36.4057 22.5839 36.4057 23.081V24.3505H37.4283C37.4881 24.3505 37.5472 24.3531 37.6057 24.3582V23.081C37.6057 21.9212 36.6655 20.981 35.5057 20.981H20.1077Z" fill="#E30000"/>
<path fill-rule="evenodd" clip-rule="evenodd" d="M32.2283 33.1318H17.7654C17.1064 33.1318 16.5721 33.6661 16.5721 34.3252C16.5721 34.9843 17.1064 35.5186 17.7654 35.5186H34.2283C33.1237 35.5186 32.2283 34.6231 32.2283 33.5186V33.1318Z" fill="#E30000"/>
<path d="M34.5784 33.3779H37.0784" stroke="#E30000" stroke-width="0.8" stroke-linecap="round" stroke-linejoin="round"/>
<rect x="34.3284" y="24.3506" width="3" height="2" rx="0.664062" fill="#E30000"/>
</svg>
