<svg width="36" height="37" viewBox="0 0 36 37" fill="none" xmlns="http://www.w3.org/2000/svg">
<mask id="path-1-inside-1_623_12560" fill="white">
<path fill-rule="evenodd" clip-rule="evenodd" d="M18 5.06934C11.5107 5.06934 6.25 9.63844 6.25 16.1278C6.25 21.4067 8.70903 24.7473 12.8529 27.2203C15.1906 28.6154 16.046 29.9356 16.62 30.8214C17.0634 31.5058 17.3388 31.9309 18 31.9309C18.6612 31.9309 18.9366 31.5058 19.38 30.8214C19.954 29.9356 20.8094 28.6154 23.1471 27.2203C27.291 24.7473 29.75 21.4067 29.75 16.1278C29.75 9.63844 24.4893 5.06934 18 5.06934Z"/>
</mask>
<path d="M12.8529 27.2203L12.3404 28.079H12.3404L12.8529 27.2203ZM16.62 30.8214L15.7807 31.3652V31.3652L16.62 30.8214ZM19.38 30.8214L20.2193 31.3652V31.3652L19.38 30.8214ZM23.1471 27.2203L23.6596 28.079L23.1471 27.2203ZM7.25 16.1278C7.25 10.2689 11.9814 6.06934 18 6.06934V4.06934C11.0399 4.06934 5.25 9.00801 5.25 16.1278H7.25ZM13.3653 26.3615C11.3869 25.1809 9.87033 23.8285 8.84441 22.1945C7.82368 20.5688 7.25 18.603 7.25 16.1278H5.25C5.25 18.9315 5.90583 21.2754 7.15058 23.258C8.39013 25.2323 10.175 26.7867 12.3404 28.079L13.3653 26.3615ZM17.4592 30.2776C16.8429 29.3264 15.8869 27.8664 13.3653 26.3615L12.3404 28.079C14.4943 29.3644 15.2492 30.5448 15.7807 31.3652L17.4592 30.2776ZM18 30.9309C17.9454 30.9309 17.933 30.9228 17.9408 30.9259C17.9481 30.9289 17.9391 30.9281 17.9081 30.8994C17.872 30.8659 17.819 30.8067 17.7397 30.6971C17.6593 30.5861 17.5737 30.4544 17.4592 30.2776L15.7807 31.3652C15.9791 31.6714 16.2301 32.071 16.5485 32.3662C16.9313 32.721 17.4053 32.9309 18 32.9309V30.9309ZM18 32.9309C18.5947 32.9309 19.0687 32.721 19.4515 32.3662C19.7699 32.071 20.0209 31.6714 20.2193 31.3652L18.5408 30.2776C18.4263 30.4544 18.3407 30.5861 18.2603 30.6971C18.181 30.8067 18.128 30.8659 18.0919 30.8994C18.0609 30.9281 18.0519 30.9289 18.0592 30.9259C18.067 30.9228 18.0546 30.9309 18 30.9309V32.9309ZM20.2193 31.3652C20.7508 30.5448 21.5057 29.3644 23.6596 28.079L22.6347 26.3615C20.1131 27.8664 19.1571 29.3264 18.5408 30.2776L20.2193 31.3652ZM23.6596 28.079C25.825 26.7867 27.6099 25.2323 28.8494 23.258C30.0942 21.2754 30.75 18.9315 30.75 16.1278H28.75C28.75 18.603 28.1763 20.5688 27.1556 22.1945C26.1297 23.8285 24.6131 25.1809 22.6347 26.3615L23.6596 28.079ZM30.75 16.1278C30.75 9.00801 24.9601 4.06934 18 4.06934V6.06934C24.0186 6.06934 28.75 10.2689 28.75 16.1278H30.75Z" fill="#E30000" mask="url(#path-1-inside-1_623_12560)"/>
<path d="M22.1825 18.9134C22.0314 19.2735 21.8447 19.617 21.6254 19.9383C21.3325 20.3662 21.0919 20.6619 20.9075 20.8265C20.621 21.0954 20.3133 21.2338 19.9843 21.2416C19.7487 21.2416 19.4639 21.173 19.1322 21.0335C18.7994 20.8946 18.4938 20.8265 18.214 20.8265C17.921 20.8265 17.6068 20.8946 17.2701 21.0335C16.9341 21.173 16.6624 21.2461 16.4545 21.2528C16.1397 21.2667 15.8249 21.125 15.5112 20.8265C15.311 20.648 15.0606 20.3411 14.76 19.9071C14.4381 19.4445 14.1735 18.9061 13.9662 18.2941C13.7441 17.6318 13.6328 16.9913 13.6328 16.3709C13.6328 15.6607 13.7828 15.0475 14.0835 14.5342C14.3108 14.1311 14.6359 13.7947 15.0273 13.5573C15.4133 13.3206 15.8539 13.1931 16.3039 13.188C16.5549 13.188 16.8839 13.2672 17.2914 13.4234C17.699 13.5796 17.9608 13.6589 18.0749 13.6589C18.1611 13.6589 18.4507 13.5657 18.9439 13.381C19.4093 13.2097 19.8021 13.1389 20.124 13.1668C20.9969 13.2387 21.6522 13.5902 22.0881 14.224C21.3079 14.7078 20.9222 15.3845 20.9298 16.2532C20.9364 16.93 21.177 17.4929 21.6483 17.9398C21.8567 18.1438 22.0999 18.3069 22.3658 18.4213C22.3079 18.5926 22.2468 18.7561 22.1825 18.9134ZM20.1818 10.862C20.1818 11.392 19.992 11.8874 19.615 12.3455C19.1589 12.89 18.6079 13.2053 18.0105 13.1556C18.0027 13.089 17.9988 13.0219 17.999 12.9548C17.999 12.4454 18.2151 11.9008 18.6008 11.4551C18.7928 11.2297 19.0372 11.0416 19.3335 10.8921C19.6292 10.7448 19.9085 10.6634 20.1715 10.6494C20.1786 10.7208 20.1818 10.7917 20.1818 10.862Z" fill="#E30000"/>
</svg>
